<svg width="1414" height="727" viewBox="0 0 1414 727" fill="none" xmlns="http://www.w3.org/2000/svg">
<rect width="490" height="258" fill="#022913"/>
<path d="M214.5 24.5V217.5H41V37H152.5V164.5H97.5V84.5" stroke="#079444" stroke-width="27"/>
<path d="M271 232V39H444.5V219.5H333V92H388V172" stroke="#079444" stroke-width="27"/>
<rect x="460" width="490" height="258" fill="#022913"/>
<path d="M674.5 24.5V217.5H501V37H612.5V164.5H557.5V84.5" stroke="#079444" stroke-width="27"/>
<path d="M731 232V39H904.5V219.5H793V92H848V172" stroke="#079444" stroke-width="27"/>
<rect x="460" y="469" width="490" height="258" fill="#022913"/>
<path d="M674.5 493.5V686.5H501V506H612.5V633.5H557.5V553.5" stroke="#079444" stroke-width="27"/>
<path d="M731 701V508H904.5V688.5H793V561H848V641" stroke="#079444" stroke-width="27"/>
<rect x="924" width="490" height="258" fill="#022913"/>
<path d="M1138.5 24.5V217.5H965V37H1076.5V164.5H1021.5V84.5" stroke="#079444" stroke-width="27"/>
<path d="M1195 232V39H1368.5V219.5H1257V92H1312V172" stroke="#079444" stroke-width="27"/>
<rect y="237" width="490" height="258" fill="#022913"/>
<path d="M214.5 261.5V454.5H41V274H152.5V401.5H97.5V321.5" stroke="#079444" stroke-width="27"/>
<path d="M271 469V276H444.5V456.5H333V329H388V409" stroke="#079444" stroke-width="27"/>
<rect y="469" width="490" height="258" fill="#022913"/>
<path d="M214.5 493.5V686.5H41V506H152.5V633.5H97.5V553.5" stroke="#079444" stroke-width="27"/>
<path d="M271 701V508H444.5V688.5H333V561H388V641" stroke="#079444" stroke-width="27"/>
<rect x="924" y="469" width="490" height="258" fill="#022913"/>
<path d="M1138.5 493.5V686.5H965V506H1076.5V633.5H1021.5V553.5" stroke="#079444" stroke-width="27"/>
<path d="M1195 701V508H1368.5V688.5H1257V561H1312V641" stroke="#079444" stroke-width="27"/>
<rect x="924" y="237" width="490" height="258" fill="#022913"/>
<path d="M1138.5 261.5V454.5H965V274H1076.5V401.5H1021.5V321.5" stroke="#079444" stroke-width="27"/>
<path d="M1195 469V276H1368.5V456.5H1257V329H1312V409" stroke="#079444" stroke-width="27"/>
</svg>
