<?xml version="1.0" encoding="UTF-8"?>
<svg xmlns="http://www.w3.org/2000/svg" xmlns:xlink="http://www.w3.org/1999/xlink" width="400px" height="407px" viewBox="0 0 300 305" version="1.1">
<g id="surface1">
<path style=" stroke:none;fill-rule:nonzero;fill:rgb(100%,89.803922%,50.196078%);fill-opacity:1;" d="M 298.5 149.878906 C 298.5 232.238281 231.679688 299.003906 149.25 299.003906 C 66.820312 299.003906 0 232.238281 0 149.878906 C 0 67.515625 66.820312 0.75 149.25 0.75 C 231.679688 0.75 298.5 67.515625 298.5 149.878906 Z M 298.5 149.878906 "/>
<path style=" stroke:none;fill-rule:nonzero;fill:rgb(2.745098%,58.039216%,26.666667%);fill-opacity:1;" d="M 180 51.332031 L 150.75 0.75 L 122.25 51.332031 Z M 180 51.332031 "/>
<path style=" stroke:none;fill-rule:nonzero;fill:rgb(2.745098%,58.039216%,26.666667%);fill-opacity:1;" d="M 52.5 120.277344 L 1.875 149.503906 L 52.5 177.980469 Z M 52.5 120.277344 "/>
<path style=" stroke:none;fill-rule:nonzero;fill:rgb(2.745098%,58.039216%,26.666667%);fill-opacity:1;" d="M 66.898438 91.320312 L 9.710938 103.484375 L 49.050781 146.199219 Z M 66.898438 91.320312 "/>
<path style=" stroke:none;fill-rule:nonzero;fill:rgb(2.745098%,58.039216%,26.666667%);fill-opacity:1;" d="M 89.707031 69.449219 L 31.558594 63.363281 L 55.761719 116.132812 Z M 89.707031 69.449219 "/>
<path style=" stroke:none;fill-rule:nonzero;fill:rgb(2.745098%,58.039216%,26.666667%);fill-opacity:1;" d="M 116.71875 52.386719 L 62.890625 29.578125 L 70.59375 87.113281 Z M 116.71875 52.386719 "/>
<path style=" stroke:none;fill-rule:nonzero;fill:rgb(2.745098%,58.039216%,26.666667%);fill-opacity:1;" d="M 147.128906 48.5 L 104.703125 8.300781 L 91.757812 64.890625 Z M 147.128906 48.5 "/>
<path style=" stroke:none;fill-rule:nonzero;fill:rgb(2.745098%,58.039216%,26.666667%);fill-opacity:1;" d="M 248.378906 120.277344 L 299.003906 149.503906 L 248.378906 177.980469 Z M 248.378906 120.277344 "/>
<path style=" stroke:none;fill-rule:nonzero;fill:rgb(2.745098%,58.039216%,26.666667%);fill-opacity:1;" d="M 233.980469 91.320312 L 291.167969 103.484375 L 251.828125 146.199219 Z M 233.980469 91.320312 "/>
<path style=" stroke:none;fill-rule:nonzero;fill:rgb(2.745098%,58.039216%,26.666667%);fill-opacity:1;" d="M 211.171875 69.449219 L 269.320312 63.363281 L 245.117188 116.132812 Z M 211.171875 69.449219 "/>
<path style=" stroke:none;fill-rule:nonzero;fill:rgb(2.745098%,58.039216%,26.666667%);fill-opacity:1;" d="M 184.160156 52.386719 L 237.988281 29.578125 L 230.28125 87.113281 Z M 184.160156 52.386719 "/>
<path style=" stroke:none;fill-rule:nonzero;fill:rgb(2.745098%,58.039216%,26.666667%);fill-opacity:1;" d="M 153.75 48.5 L 196.171875 8.300781 L 209.121094 64.890625 Z M 153.75 48.5 "/>
<path style=" stroke:none;fill-rule:nonzero;fill:rgb(2.745098%,58.039216%,26.666667%);fill-opacity:1;" d="M 60 204.582031 L 240.75 204.582031 C 242.820312 204.582031 244.5 206.261719 244.5 208.328125 L 244.5 259.289062 C 244.5 261.355469 242.820312 263.035156 240.75 263.035156 L 60 263.035156 C 57.929688 263.035156 56.25 261.355469 56.25 259.289062 L 56.25 208.328125 C 56.25 206.261719 57.929688 204.582031 60 204.582031 Z M 60 204.582031 "/>
<path style=" stroke:none;fill-rule:nonzero;fill:rgb(93.72549%,10.980392%,13.72549%);fill-opacity:1;" d="M 270.75 210.953125 L 218.625 210.953125 L 218.625 282.894531 C 218.625 282.894531 219.273438 292.175781 215.25 298.628906 C 211.875 304.042969 202.5 304.625 202.5 304.625 L 99.75 304.625 C 99.75 304.625 92.558594 306.691406 85.875 298.628906 C 81.75 293.65625 83.25 280.644531 83.25 280.644531 L 81.75 210.953125 L 31.125 210.953125 C 31.125 210.953125 28.84375 141.089844 33.609375 125.523438 C 51.054688 68.511719 95.335938 30.726562 150 30.726562 C 204.660156 30.726562 253.5 68.945312 267.890625 124.773438 C 272.097656 141.089844 270.75 210.953125 270.75 210.953125 Z M 270.75 210.953125 "/>
<path style=" stroke:none;fill-rule:nonzero;fill:rgb(2.745098%,58.039216%,26.666667%);fill-opacity:1;" d="M 66 182.101562 C 66 186.238281 62.640625 189.59375 58.5 189.59375 C 54.359375 189.59375 51 186.238281 51 182.101562 C 51 177.960938 54.359375 174.605469 58.5 174.605469 C 62.640625 174.605469 66 177.960938 66 182.101562 Z M 66 182.101562 "/>
<path style=" stroke:none;fill-rule:nonzero;fill:rgb(2.745098%,58.039216%,26.666667%);fill-opacity:1;" d="M 253.5 182.101562 C 253.5 186.238281 250.140625 189.59375 246 189.59375 C 241.859375 189.59375 238.5 186.238281 238.5 182.101562 C 238.5 177.960938 241.859375 174.605469 246 174.605469 C 250.140625 174.605469 253.5 177.960938 253.5 182.101562 Z M 253.5 182.101562 "/>
<path style=" stroke:none;fill-rule:nonzero;fill:rgb(96.862745%,55.294118%,56.862745%);fill-opacity:1;" d="M 246 150.625 L 232.875 150.625 C 232.875 150.625 232.125 116.769531 198.75 116.15625 C 165.375 115.542969 163.875 148.753906 163.875 148.753906 L 161.625 148.753906 C 161.625 148.753906 161.453125 128.894531 151.5 128.894531 C 140.25 128.894531 139.5 148.753906 139.5 148.753906 C 139.5 148.753906 139.863281 148.753906 137.25 148.753906 C 137.25 131.515625 123.375 117.277344 106.5 116.15625 C 71.625 113.832031 69.375 150.625 69.375 150.625 L 55.5 150.625 C 55.5 98.066406 98.144531 55.453125 150.75 55.453125 C 203.355469 55.453125 246 98.066406 246 150.625 Z M 246 150.625 "/>
<path style=" stroke:none;fill-rule:evenodd;fill:rgb(96.862745%,55.294118%,56.862745%);fill-opacity:1;" d="M 138.375 149.128906 L 82.5 149.128906 L 82.5 210.578125 C 82.5 210.578125 97.429688 212.78125 103.875 222.191406 C 113.371094 236.054688 110.625 266.03125 110.625 266.03125 L 190.125 266.03125 C 190.125 266.03125 187.378906 236.054688 196.875 222.191406 C 203.320312 212.78125 218.25 210.578125 218.25 210.578125 L 218.25 149.128906 L 162.375 149.128906 L 180.75 210.578125 L 120 210.578125 Z M 138.375 149.128906 "/>
<path style=" stroke:none;fill-rule:nonzero;fill:rgb(0.784314%,16.078431%,7.45098%);fill-opacity:1;" d="M 139.5 170.859375 L 161.25 170.859375 L 161.25 211.328125 L 139.5 211.328125 Z M 139.5 170.859375 "/>
<path style=" stroke:none;fill-rule:nonzero;fill:rgb(100%,100%,100%);fill-opacity:1;" d="M 119.25 232.308594 L 182.25 232.308594 C 187.636719 232.308594 192 236.671875 192 242.050781 L 192 268.28125 C 192 273.660156 187.636719 278.023438 182.25 278.023438 L 119.25 278.023438 C 113.863281 278.023438 109.5 273.660156 109.5 268.28125 L 109.5 242.050781 C 109.5 236.671875 113.863281 232.308594 119.25 232.308594 Z M 119.25 232.308594 "/>
<path style=" stroke:none;fill-rule:nonzero;fill:rgb(0.784314%,16.078431%,7.45098%);fill-opacity:1;" d="M 109.5 248.046875 L 192 248.046875 L 192 263.035156 L 109.5 263.035156 Z M 109.5 248.046875 "/>
<path style=" stroke:none;fill-rule:nonzero;fill:rgb(0.784314%,16.078431%,7.45098%);fill-opacity:1;" d="M 124.5 150.25 C 124.5 161.632812 115.265625 170.859375 103.875 170.859375 C 92.484375 170.859375 83.25 161.632812 83.25 150.25 C 83.25 138.871094 92.484375 129.644531 103.875 129.644531 C 115.265625 129.644531 124.5 138.871094 124.5 150.25 Z M 124.5 150.25 "/>
<path style=" stroke:none;fill-rule:nonzero;fill:rgb(100%,80%,0.784314%);fill-opacity:1;" d="M 111.75 150.25 C 111.75 154.597656 108.222656 158.121094 103.875 158.121094 C 99.527344 158.121094 96 154.597656 96 150.25 C 96 145.90625 99.527344 142.382812 103.875 142.382812 C 108.222656 142.382812 111.75 145.90625 111.75 150.25 Z M 111.75 150.25 "/>
<path style=" stroke:none;fill-rule:nonzero;fill:rgb(0.784314%,16.078431%,7.45098%);fill-opacity:1;" d="M 218.25 150.25 C 218.25 161.632812 209.015625 170.859375 197.625 170.859375 C 186.234375 170.859375 177 161.632812 177 150.25 C 177 138.871094 186.234375 129.644531 197.625 129.644531 C 209.015625 129.644531 218.25 138.871094 218.25 150.25 Z M 218.25 150.25 "/>
<path style=" stroke:none;fill-rule:nonzero;fill:rgb(100%,80%,0.784314%);fill-opacity:1;" d="M 205.5 150.25 C 205.5 154.597656 201.972656 158.121094 197.625 158.121094 C 193.277344 158.121094 189.75 154.597656 189.75 150.25 C 189.75 145.90625 193.277344 142.382812 197.625 142.382812 C 201.972656 142.382812 205.5 145.90625 205.5 150.25 Z M 205.5 150.25 "/>
</g>
</svg>
